<?xml version="1.0" standalone="no"?>
<!DOCTYPE svg PUBLIC "-//W3C//DTD SVG 20010904//EN"
 "http://www.w3.org/TR/2001/REC-SVG-20010904/DTD/svg10.dtd">
<svg version="1.0" xmlns="http://www.w3.org/2000/svg"
 width="1500.000000pt" height="1500.000000pt" viewBox="0 0 1500.000000 1500.000000"
 preserveAspectRatio="xMidYMid meet">
<g transform="translate(0.000000,1500.000000) scale(0.100000,-0.100000)"
fill="#000000" stroke="none">
<path d="M1114 10697 c-8 -5 -12 -12 -9 -18 4 -5 6 -1432 5 -3172 l-1 -3162
13 -18 13 -17 700 0 700 -1 12 18 13 17 0 62 0 62 -12 10 -13 9 -618 -6 c-341
-3 -623 -3 -628 0 l-9 5 0 3024 c0 1663 1 3025 3 3026 2 2 2793 4 6202 4
l6199 0 8 -8 8 -8 -2 -3020 -3 -3019 -626 0 -626 0 -16 -14 -17 -13 0 -62 0
-62 12 -12 12 -12 707 0 707 0 6 16 c3 9 6 1440 6 3181 0 1740 2 3169 6 3174
3 5 -1 11 -8 14 -7 3 -2874 6 -6371 8 l-6358 2 -15 -8z"/>
<path d="M8904 8615 c-40 -7 -118 -28 -174 -45 -89 -28 -136 -50 -259 -116
-53 -28 -186 -141 -239 -203 -31 -36 -60 -68 -63 -71 -4 -3 -22 -30 -40 -60
-19 -31 -40 -64 -47 -75 -6 -11 -15 -27 -18 -35 -4 -8 -18 -39 -31 -69 -37
-79 -63 -160 -63 -192 0 -15 -7 -56 -16 -91 l-17 -63 7 -129 c7 -130 12 -159
48 -296 21 -78 30 -103 82 -210 50 -102 98 -169 183 -255 69 -70 192 -175 206
-175 3 0 30 -16 62 -35 60 -36 149 -72 250 -100 33 -9 74 -22 90 -27 17 -6 98
-12 181 -15 l150 -6 56 17 c31 9 73 16 95 16 21 0 47 7 57 15 11 8 28 15 37
15 10 0 40 11 67 25 28 14 55 25 60 25 42 0 288 191 334 258 17 26 35 49 38
52 16 12 62 102 82 161 l22 64 0 127 1 127 -12 12 -12 12 -7 -19 c-12 -34
-105 -184 -114 -184 -5 0 -12 -9 -15 -20 -13 -39 -241 -250 -271 -250 -4 0
-15 -6 -23 -13 -40 -33 -212 -95 -341 -122 -200 -41 -462 15 -651 141 -68 45
-191 168 -212 212 -5 12 -14 22 -19 22 -5 0 -18 20 -29 45 l-20 45 43 71 c75
124 82 135 113 178 131 187 341 392 515 506 41 27 91 61 110 75 19 15 47 30
63 34 34 8 35 24 1 32 l-26 7 -26 -13 c-15 -6 -40 -18 -55 -26 -16 -8 -36 -14
-45 -14 -9 0 -29 -6 -43 -14 -14 -7 -37 -16 -52 -20 -15 -3 -27 -11 -27 -16 0
-6 -9 -10 -21 -10 -22 0 -120 -54 -234 -128 l-70 -46 -153 -153 c-84 -84 -157
-153 -162 -153 -26 0 -22 180 6 245 7 19 14 41 14 49 0 19 67 161 94 201 86
124 200 231 301 282 119 60 177 81 260 93 39 6 88 13 110 16 l40 6 105 -16
c155 -24 232 -52 370 -134 85 -51 100 -66 100 -101 0 -35 -114 -232 -169 -294
-26 -29 -58 -67 -70 -85 -55 -79 -453 -382 -501 -382 -7 0 -24 -6 -38 -14 -15
-8 -34 -17 -42 -20 -8 -4 -34 -17 -58 -30 -23 -14 -56 -27 -73 -31 -17 -4 -33
-13 -36 -21 -3 -8 -11 -14 -19 -14 -8 0 -14 -7 -14 -16 l0 -16 23 7 c12 4 62
11 112 16 49 4 99 12 110 17 11 5 40 15 65 21 25 7 63 17 85 23 67 18 267 100
316 130 25 15 49 28 52 28 46 0 278 202 360 313 21 29 45 61 54 72 23 27 113
220 113 242 1 10 7 29 15 43 l14 25 1 61 0 61 -62 65 c-116 118 -253 215 -358
251 -25 9 -76 27 -115 41 -38 14 -81 26 -95 26 -14 0 -47 7 -74 15 l-49 15
-111 -1 c-61 -1 -143 -7 -182 -14z"/>
<path d="M11422 8572 c-2 -7 -3 -368 0 -800 2 -433 3 -793 0 -800 -4 -14 -32
-16 -32 -2 0 15 -229 474 -368 736 -11 22 -23 46 -26 54 -3 8 -16 31 -27 50
-12 19 -53 96 -91 170 -39 74 -74 140 -78 145 -4 6 -56 105 -114 220 -58 116
-110 216 -116 223 l-11 12 -138 0 -139 0 -9 -12 -9 -13 7 -120 c10 -161 9
-1608 0 -1810 -4 -88 -6 -166 -3 -172 l4 -13 146 0 145 0 -6 263 c-6 211 -11
1240 -8 1310 3 48 37 -6 154 -241 119 -240 208 -412 305 -592 23 -41 60 -111
82 -155 23 -44 56 -107 75 -140 18 -33 61 -114 94 -180 34 -66 72 -140 86
-164 13 -24 29 -57 34 -73 l10 -28 161 2 161 3 0 1059 c0 583 -4 1063 -8 1067
-5 4 -68 9 -142 11 l-134 3 -5 -13z"/>
<path d="M11999 8570 c0 -3 -1 -483 -2 -1067 l-2 -1062 540 -3 c297 -2 547 0
555 4 l15 6 -4 119 -3 118 -10 13 -11 12 -76 -5 c-143 -9 -741 -16 -741 -8 0
5 -1 159 -2 343 l-2 335 385 0 384 0 3 124 3 124 -9 9 -10 10 -303 -3 c-167
-1 -337 -2 -377 -3 l-73 -1 -1 338 -1 338 9 8 c5 4 191 4 414 -1 l405 -7 10
13 10 13 -3 120 -3 121 -550 -2 c-302 0 -549 -3 -550 -6z"/>
<path d="M1730 8546 c-13 -13 -12 -22 3 -38 16 -18 117 -167 117 -174 0 -4 13
-23 28 -43 16 -20 32 -43 35 -51 4 -8 36 -60 72 -115 35 -55 83 -131 107 -168
24 -38 50 -79 58 -92 46 -73 106 -168 115 -183 28 -47 108 -163 116 -168 21
-13 5 -51 -67 -162 -43 -64 -97 -147 -120 -184 -24 -36 -44 -69 -44 -73 0 -4
-12 -24 -27 -44 -16 -20 -33 -45 -40 -56 -11 -19 -80 -129 -106 -169 -6 -11
-31 -49 -54 -84 -24 -35 -43 -66 -43 -69 0 -3 -14 -22 -30 -43 -17 -21 -30
-43 -30 -48 0 -6 -6 -15 -13 -19 -7 -4 -24 -26 -37 -48 -13 -22 -27 -42 -30
-45 -4 -3 -12 -15 -18 -26 l-12 -22 13 -10 13 -11 163 4 c90 3 165 6 166 7 6
10 81 145 84 153 2 6 17 26 32 46 16 20 29 39 29 42 0 3 12 25 28 49 15 24 32
52 39 63 7 11 38 62 70 113 32 51 63 101 68 110 6 10 39 66 74 125 l64 108 19
-18 c11 -10 32 -40 45 -68 14 -27 35 -63 47 -80 11 -16 29 -45 39 -64 10 -18
36 -61 58 -95 41 -64 147 -235 244 -393 l57 -93 138 0 c76 0 144 -2 152 -5 7
-3 22 0 31 7 l18 13 -29 45 c-16 25 -72 110 -124 190 -52 80 -115 178 -139
218 -24 40 -51 84 -59 96 -17 27 -100 159 -115 184 -6 9 -42 64 -80 122 -81
122 -84 128 -107 168 l-18 30 11 31 c6 17 14 31 18 31 4 0 13 10 20 23 6 12
19 34 29 49 17 27 98 156 117 187 6 9 40 61 76 116 36 55 78 120 93 145 40 67
47 78 94 148 23 35 42 66 42 69 0 3 14 22 30 43 17 21 30 41 30 44 0 8 68 106
92 133 l20 21 -10 18 -10 18 -158 -3 -159 -2 -18 -21 c-9 -11 -49 -73 -87
-137 -39 -64 -95 -154 -125 -201 -30 -47 -54 -88 -55 -92 0 -4 -20 -36 -45
-72 -25 -37 -45 -69 -45 -72 0 -3 -13 -26 -30 -51 -16 -24 -30 -46 -30 -49 0
-13 -66 -104 -75 -104 -6 0 -19 17 -30 38 -10 20 -32 56 -47 80 -15 24 -28 45
-28 47 0 5 -115 195 -152 253 -10 15 -21 34 -25 42 -11 20 -78 124 -113 175
-15 22 -40 63 -54 92 -15 28 -33 56 -39 61 l-12 10 -158 3 -158 4 -9 -9z"/>
<path d="M7373 8548 c-2 -5 -3 -302 -1 -660 1 -359 3 -720 3 -803 l0 -150 -17
-3 -16 -3 -7 23 c-9 27 -203 419 -295 593 -34 66 -92 176 -128 245 -36 69 -79
151 -96 182 -80 149 -161 305 -223 430 l-68 137 -30 6 c-16 3 -83 5 -148 3
l-118 -3 -3 -1067 -3 -1067 131 -3 c72 -2 137 0 145 3 l15 7 -3 163 c-2 90 -6
439 -10 774 l-7 610 8 18 c14 28 19 21 157 -255 73 -145 151 -299 175 -343 24
-44 72 -134 105 -200 34 -66 81 -156 104 -200 24 -44 68 -127 99 -185 31 -58
65 -121 77 -140 11 -19 24 -42 27 -50 3 -8 26 -56 51 -107 l45 -92 141 -3 c78
-2 151 -2 162 0 l20 3 0 1065 0 1065 -20 4 c-37 8 -267 10 -272 3z"/>
<path d="M4172 8538 c-7 -7 -12 -20 -12 -30 0 -9 -6 -32 -14 -50 -22 -54 -46
-134 -46 -156 0 -11 -7 -25 -15 -32 -8 -7 -15 -23 -15 -37 0 -13 -5 -34 -12
-46 -6 -12 -15 -35 -19 -52 -4 -16 -23 -73 -42 -125 -46 -127 -42 -116 -67
-198 -13 -40 -27 -75 -31 -78 -5 -3 -9 -14 -9 -24 0 -11 -6 -34 -14 -52 -8
-18 -35 -100 -61 -183 -26 -82 -53 -163 -60 -180 -6 -16 -27 -77 -45 -135 -18
-58 -38 -118 -45 -135 -16 -38 -34 -92 -45 -130 -13 -46 -61 -186 -76 -223 -8
-18 -14 -41 -14 -51 0 -10 -7 -24 -15 -31 -8 -7 -15 -21 -15 -32 0 -10 -6 -31
-14 -46 -8 -15 -17 -44 -21 -64 l-7 -36 17 -4 c10 -1 78 -1 153 2 l135 5 14
50 c7 28 17 64 22 80 4 17 12 39 18 50 11 22 19 47 89 283 l3 12 408 -2 408
-3 3 -25 c2 -14 23 -83 46 -155 24 -71 54 -164 66 -205 13 -41 26 -78 30 -83
9 -10 285 -16 301 -7 l12 8 -13 34 c-7 18 -19 47 -26 63 -12 28 -45 120 -74
205 -7 19 -18 48 -26 63 -8 16 -14 38 -14 49 0 11 -6 32 -14 46 -14 29 -26 62
-57 162 -11 36 -26 79 -33 95 -23 54 -38 100 -44 130 -2 17 -11 39 -18 50 -8
11 -14 27 -14 37 0 9 -6 32 -14 50 -17 42 -35 94 -46 133 -5 17 -18 55 -30 85
-12 30 -25 69 -30 85 -10 37 -28 90 -45 130 -18 44 -35 95 -46 135 -6 19 -14
44 -18 55 -14 35 -32 89 -41 120 -10 36 -28 89 -46 130 -7 17 -20 57 -29 90
-10 33 -24 75 -31 93 -8 18 -14 41 -14 50 0 10 -5 23 -12 30 l-12 12 -126 0
-126 0 -12 -12z m170 -528 c4 -14 14 -52 23 -85 9 -33 20 -69 25 -80 5 -11 16
-47 25 -80 9 -33 23 -76 30 -95 7 -19 21 -60 31 -90 19 -63 40 -120 60 -168 8
-18 14 -38 14 -45 0 -7 6 -23 13 -37 27 -53 59 -149 55 -170 l-3 -22 -302 -1
-302 -2 -5 19 c-3 10 10 58 29 105 40 103 84 225 95 266 4 17 26 86 49 155 23
69 49 150 58 180 9 30 20 66 24 80 5 14 11 42 15 63 l6 38 27 -3 26 -3 7 -25z"/>
<path d="M4280 5523 c-8 -3 -21 -10 -28 -16 l-13 -10 17 -18 c10 -11 28 -19
41 -19 27 0 31 -16 5 -24 -17 -6 -28 -25 -71 -121 -13 -27 -34 -72 -47 -98
-13 -27 -24 -52 -24 -57 0 -11 48 -22 70 -15 l18 6 5 28 6 29 33 3 c18 2 48 3
66 1 l33 -3 10 -27 c12 -31 26 -42 56 -42 28 0 38 17 25 43 -6 12 -20 45 -32
72 -26 62 -49 112 -67 147 -18 37 -16 53 9 70 l22 14 -7 17 -6 17 -33 0 c-18
0 -42 2 -53 5 -11 2 -27 1 -35 -2z"/>
<path d="M2077 5432 c-24 -26 -21 -39 13 -57 l30 -16 0 -64 0 -65 -24 -15
c-30 -20 -40 -43 -25 -61 l11 -14 77 0 77 0 20 15 19 15 -32 30 -33 30 0 70 0
70 25 10 c26 10 31 25 16 49 l-10 15 -74 3 -74 3 -16 -18z"/>
<path d="M2360 5430 l-11 -20 3 -132 3 -133 24 -3 c35 -5 45 11 45 83 1 84 9
84 72 1 60 -79 75 -90 110 -82 l24 6 0 134 0 133 -20 18 -20 18 -14 -13 -15
-12 -3 -81 -3 -82 -55 69 c-99 124 -118 137 -140 96z"/>
<path d="M2764 5416 l-34 -34 3 -96 3 -95 24 -26 23 -25 93 0 93 0 26 23 27
23 2 98 2 97 -14 21 c-8 11 -30 26 -48 34 l-33 14 -67 0 -66 0 -34 -34z m174
-48 l12 -12 0 -68 0 -68 -27 -5 c-16 -4 -36 -8 -47 -10 -10 -2 -29 0 -42 5
l-24 10 0 73 c0 88 0 87 65 87 l51 0 12 -12z"/>
<path d="M3343 5440 c-13 -5 -23 -17 -23 -26 0 -9 -8 -35 -19 -58 -10 -23 -26
-59 -36 -81 l-18 -40 -10 25 c-36 90 -57 141 -67 160 -4 8 -21 16 -39 18 l-31
3 0 -28 c0 -15 6 -39 13 -53 7 -14 24 -54 37 -90 13 -36 31 -78 40 -95 l17
-30 22 -3 c13 -2 33 -1 46 2 l22 6 13 32 c6 18 20 51 31 74 10 23 19 45 19 50
0 5 12 33 27 62 l27 54 -19 14 c-21 16 -22 16 -52 4z"/>
<path d="M3589 5439 l-27 -10 -17 -47 c-9 -26 -35 -84 -57 -130 l-39 -83 12
-15 c24 -29 79 -11 79 27 0 22 20 29 81 29 l49 0 17 -27 c28 -44 51 -53 83
-33 l15 9 -17 33 c-43 86 -88 188 -88 200 0 16 -41 58 -56 57 -5 0 -21 -5 -35
-10z"/>
<path d="M3931 5439 c-18 -4 -43 -17 -57 -30 l-24 -22 0 -97 0 -96 28 -27 c15
-15 38 -27 50 -27 23 0 25 -3 26 -65 l1 -39 15 -3 c8 -2 30 6 48 17 l32 20 0
19 c0 11 -7 27 -16 35 l-15 16 33 0 c18 0 40 4 48 10 l14 9 -10 28 -9 28 -76
-3 -75 -4 -12 15 -12 15 4 57 c3 32 10 63 15 68 l11 11 69 -2 69 -1 13 15 12
14 -10 22 -9 21 -65 1 c-36 1 -80 -1 -98 -5z"/>
<path d="M4613 5444 c-7 -3 -22 -21 -33 -39 l-21 -34 2 -88 2 -88 25 -27 26
-28 94 0 94 0 29 29 29 29 0 92 0 92 -34 34 -34 34 -83 -1 c-46 0 -89 -3 -96
-5z m151 -77 l17 -12 -3 -70 -3 -70 -65 0 -65 0 -3 60 c-2 32 -1 69 3 82 l5
23 48 0 c27 0 56 -6 66 -13z"/>
<path d="M5155 5419 l-35 -31 0 -97 0 -97 28 -27 28 -27 67 0 68 0 29 -22 30
-21 25 11 c26 12 34 37 13 44 l-11 4 11 46 c7 26 12 78 12 116 l0 69 -22 20
c-39 35 -64 43 -137 43 l-70 0 -36 -31z m178 -66 c8 -16 14 -46 13 -68 l-2
-40 -29 -3 c-17 -2 -38 -12 -48 -23 -23 -25 -32 -24 -55 6 l-20 25 5 43 c3 23
10 52 14 65 l9 22 49 0 50 0 14 -27z"/>
<path d="M5528 5436 l-18 -13 0 -116 0 -115 31 -26 31 -26 84 0 85 0 24 28 24
27 1 116 0 117 -16 13 -16 13 -16 -11 -17 -10 -2 -89 c-2 -49 -5 -99 -8 -111
l-5 -23 -55 0 -54 0 -8 13 c-4 6 -7 53 -6 104 l2 92 -15 16 c-19 18 -24 18
-46 1z"/>
<path d="M5983 5443 l-81 -4 -5 -22 c-7 -31 -1 -253 7 -266 l7 -11 118 0 119
0 11 14 12 15 -11 20 -11 21 -89 0 -90 0 0 25 0 25 63 0 63 0 12 12 c16 16 15
23 -4 42 l-15 16 -60 0 -60 0 3 22 3 21 76 -2 76 -2 17 17 17 16 -14 22 -14
21 -34 1 c-19 0 -71 -1 -116 -3z"/>
<path d="M6523 5444 c-12 -5 -30 -40 -73 -139 -12 -27 -31 -69 -42 -93 l-20
-43 13 -15 12 -15 25 3 26 3 16 30 17 30 52 3 53 3 15 -13 c8 -6 19 -22 24
-35 l9 -23 22 0 c13 0 29 4 37 9 l15 10 -32 66 c-18 36 -35 79 -39 95 -3 16
-12 35 -19 41 -8 6 -14 20 -14 29 0 35 -60 68 -97 54z"/>
<path d="M6800 5431 l-10 -20 0 -123 0 -124 12 -12 12 -12 107 0 107 0 12 15
12 14 -7 21 -6 20 -85 0 -84 0 0 101 c0 107 -9 139 -40 139 -11 0 -24 -9 -30
-19z"/>
<path d="M7116 5438 c-9 -5 -16 -20 -16 -33 l0 -25 20 0 20 0 11 -27 c5 -15 9
-52 7 -82 l-3 -55 -25 -6 -25 -6 -3 -23 -4 -24 14 -8 c7 -5 48 -9 90 -9 l77 0
6 11 c12 19 -4 55 -30 67 l-25 12 0 47 c0 61 9 93 25 93 7 0 18 6 24 14 l12
14 -6 24 -6 23 -74 1 c-40 0 -80 -3 -89 -8z"/>
<path d="M7950 5443 c-41 -2 -85 -5 -97 -8 l-23 -5 0 -133 0 -133 12 -12 12
-12 112 0 112 0 11 14 12 15 -10 20 -11 20 -83 3 -82 3 -3 23 -3 22 61 0 61 0
6 16 c3 9 2 24 -4 33 l-10 16 -54 0 -54 0 0 25 0 25 75 0 c80 0 100 7 100 32
0 19 -29 43 -50 41 -8 -1 -49 -3 -90 -5z"/>
<path d="M8537 5422 l-10 -23 9 -9 c5 -5 24 -11 42 -13 48 -5 51 -12 54 -127
l3 -105 28 -3 c16 -2 35 2 43 9 l15 12 -5 89 c-3 49 -3 95 0 103 l6 15 32 0
c18 0 41 6 51 14 l19 14 -11 25 -12 25 -127 -1 -127 -2 -10 -23z"/>
<path d="M8988 5434 c-16 -8 -28 -20 -28 -27 -1 -7 -9 -30 -20 -52 -11 -22
-19 -43 -20 -48 0 -4 -14 -36 -31 -72 l-32 -64 6 -15 6 -16 30 0 29 0 21 35
20 35 48 0 c55 0 70 -8 87 -41 l12 -24 29 0 30 0 4 20 c2 10 -4 33 -12 50 -9
16 -25 53 -37 80 -72 166 -79 174 -142 139z"/>
<path d="M9457 5435 l-21 -10 3 -135 3 -135 11 -8 c7 -4 66 -6 132 -5 l120 3
0 30 0 30 -90 5 -90 5 0 20 0 20 57 0 58 1 12 12 11 11 -11 25 -11 25 -58 3
-58 3 0 15 0 15 80 5 c104 7 131 26 88 61 l-16 14 -100 0 c-55 0 -109 -4 -120
-10z"/>
<path d="M9975 5429 c-3 -13 -4 -82 -3 -154 l3 -130 23 -3 c13 -2 30 2 38 9
l14 12 -5 17 -5 17 16 14 17 14 60 0 59 0 29 35 29 34 0 44 0 44 -29 29 -29
29 -75 0 c-41 0 -88 3 -105 6 l-31 6 -6 -23z m181 -74 l15 -24 -11 -20 c-11
-22 -27 -25 -80 -15 -36 8 -47 26 -33 57 l10 22 42 2 41 3 16 -25z"/>
<path d="M10815 5441 c-49 -3 -96 -10 -102 -14 l-13 -8 0 -134 0 -133 16 -6
c9 -3 62 -6 119 -6 132 0 165 16 123 58 l-12 12 -75 0 c-42 0 -82 4 -89 8
l-13 9 7 16 6 17 63 0 63 0 5 13 c2 6 1 22 -4 35 l-8 22 -51 -4 -50 -3 -17 12
-17 13 12 15 13 15 70 -3 69 -3 22 17 21 18 -21 21 c-12 12 -28 21 -34 20 -7
-1 -53 -4 -103 -7z"/>
<path d="M11409 5432 l-19 -13 0 -133 0 -134 16 -6 c9 -3 62 -6 119 -6 132 0
165 16 123 58 l-12 12 -77 0 -77 0 -12 15 c-6 8 -9 19 -5 25 l6 10 64 0 63 0
5 13 c2 6 1 22 -4 35 l-8 22 -61 0 -60 0 0 19 c0 25 12 28 92 25 l67 -2 15 17
16 17 -13 16 -12 17 -104 3 -104 3 -18 -13z"/>
<path d="M12099 5431 l-23 -18 42 -84 c23 -47 42 -88 42 -92 0 -5 9 -28 21
-53 l20 -45 41 3 41 3 8 15 c14 28 39 88 39 95 0 3 14 33 30 67 33 66 37 99
15 118 -34 28 -55 1 -105 -139 l-23 -64 -12 17 c-7 9 -25 51 -40 94 -36 101
-54 117 -96 83z"/>
<path d="M12557 5420 c-6 -17 -15 -30 -19 -30 -4 0 -8 -11 -8 -24 0 -13 -7
-29 -15 -36 -8 -7 -15 -19 -15 -27 0 -9 -14 -45 -32 -80 l-32 -65 15 -9 c35
-22 68 -9 87 34 l12 28 62 -3 63 -3 3 -20 c7 -38 57 -58 91 -36 l15 9 -53 109
c-29 59 -60 124 -70 143 l-17 35 -38 2 -38 2 -11 -29z"/>
<path d="M7392 5428 l-10 -13 -3 -128 -3 -129 18 -10 c9 -5 28 -7 42 -4 l24 6
0 65 c0 74 8 79 41 30 l24 -35 26 0 26 0 28 42 27 41 10 -17 10 -17 -7 -49 -7
-50 25 -11 24 -11 20 10 19 11 -1 125 -2 125 -12 15 c-8 9 -24 16 -36 16 l-23
0 -43 -65 c-24 -36 -51 -65 -59 -65 l-15 0 -43 65 -42 65 -24 0 c-13 0 -28 -6
-34 -12z"/>
<path d="M8182 5423 c-5 -10 -9 -73 -8 -140 l1 -122 12 -12 12 -12 26 7 26 7
-2 74 c-4 88 1 97 32 53 13 -18 31 -40 39 -49 8 -9 28 -33 43 -53 l28 -36 23
0 c13 0 28 6 34 13 l10 12 1 120 c0 66 -2 128 -5 138 l-5 17 -23 0 c-13 0 -29
-7 -36 -15 l-13 -15 6 -65 c8 -85 -1 -86 -56 -12 -25 34 -55 72 -67 85 l-21
22 -24 0 -24 0 -9 -17z"/>
<path d="M10347 5433 c-3 -5 -6 -68 -8 -142 l-4 -134 18 -11 17 -11 18 11 17
11 0 39 0 39 40 -3 c22 -2 42 -8 44 -14 2 -5 17 -25 33 -44 l30 -34 23 0 c12
0 28 6 34 13 l11 14 -25 33 c-30 41 -30 45 -5 77 l20 26 0 39 0 39 -30 29 -31
30 -99 0 c-54 0 -101 -3 -103 -7z m171 -69 c51 -33 23 -64 -59 -64 l-49 0 0
39 0 38 43 1 c23 0 52 -6 65 -14z"/>
<path d="M11060 5410 l-30 -29 0 -33 1 -33 20 -24 20 -24 77 -5 c77 -5 95 -13
85 -39 l-5 -13 -83 0 -82 0 -16 -18 c-38 -42 -18 -52 108 -52 l93 0 31 27 31
27 0 34 0 34 -34 34 -34 34 -60 0 -61 0 -6 10 c-4 6 -1 18 6 27 l13 15 63 -5
64 -5 21 18 22 18 -13 16 -13 16 -94 0 -93 0 -31 -30z"/>
<path d="M11745 5418 c-3 -13 -4 -79 -3 -148 l3 -125 23 -3 c13 -2 29 2 37 8
l14 11 -6 33 -5 33 14 5 c8 3 27 4 42 1 l27 -6 9 -21 c20 -51 63 -76 104 -60
22 8 20 20 -9 58 -29 38 -31 52 -10 64 l15 8 7 51 6 52 -31 30 -30 31 -101 0
-101 0 -5 -22z m182 -69 l12 -23 -11 -13 -10 -13 -50 0 -49 0 -5 15 c-4 8 -3
26 0 40 l6 24 48 -3 47 -4 12 -23z"/>
<path d="M12834 5206 c-3 -8 -4 -25 -2 -38 l3 -23 32 -3 31 -3 21 22 c29 31
26 45 -10 53 -49 9 -69 7 -75 -8z"/>
</g>
</svg>
